<?xml version="1.0" encoding="iso-8859-1"?>
<!-- Uploaded to: SVG Repo, www.svgrepo.com, Generator: SVG Repo Mixer Tools -->
<svg fill="#d0d0d0" version="1.1" id="Layer_1" xmlns="http://www.w3.org/2000/svg" xmlns:xlink="http://www.w3.org/1999/xlink" 
	 viewBox="0 0 512 512" xml:space="preserve">
<g>
	<g>
		<rect x="122.435" y="161.391" width="33.391" height="144.696"/>
	</g>
</g>
<g>
	<g>
		<rect x="356.174" y="161.391" width="33.391" height="144.696"/>
	</g>
</g>
<g>
	<g>
		<rect x="189.217" y="94.609" width="133.565" height="33.391"/>
	</g>
</g>
<g>
	<g>
		<rect x="155.826" y="128" width="33.391" height="33.391"/>
	</g>
</g>
<g>
	<g>
		<rect x="322.783" y="128" width="33.391" height="33.391"/>
	</g>
</g>
<g>
	<g>
		<polygon points="322.783,306.087 322.783,339.478 289.391,339.478 289.391,372.87 356.174,372.87 356.174,306.087 		"/>
	</g>
</g>
<g>
	<g>
		<polygon points="189.217,339.478 189.217,306.087 155.826,306.087 155.826,372.87 222.609,372.87 222.609,339.478 		"/>
	</g>
</g>
<g>
	<g>
		<rect y="128" width="33.391" height="144.696"/>
	</g>
</g>
<g>
	<g>
		<rect x="66.783" y="61.217" width="122.435" height="33.391"/>
	</g>
</g>
<g>
	<g>
		<rect x="33.391" y="94.609" width="33.391" height="33.391"/>
	</g>
</g>
<g>
	<g>
		<polygon points="66.783,306.087 66.783,272.696 33.391,272.696 33.391,339.478 89.044,339.478 89.044,306.087 		"/>
	</g>
</g>
<g>
	<g>
		<rect x="478.609" y="128" width="33.391" height="144.696"/>
	</g>
</g>
<g>
	<g>
		<rect x="445.217" y="94.609" width="33.391" height="33.391"/>
	</g>
</g>
<g>
	<g>
		<rect x="322.783" y="61.217" width="122.435" height="33.391"/>
	</g>
</g>
<g>
	<g>
		<polygon points="445.217,272.696 445.217,306.087 411.826,306.087 411.826,339.478 478.609,339.478 478.609,272.696 		"/>
	</g>
</g>
<g>
	<g>
		<polygon points="478.609,339.478 478.609,372.87 356.174,372.87 356.174,417.391 155.826,417.391 155.826,372.87 33.391,372.87 
			33.391,339.478 0,339.478 0,406.261 122.435,406.261 122.435,450.783 389.565,450.783 389.565,406.261 512,406.261 512,339.478 		
			"/>
	</g>
</g>
</svg>